<svg width="115" height="29" viewBox="0 0 115 29" fill="none" xmlns="http://www.w3.org/2000/svg">
<g clip-path="url(#clip0_1215_136)">
<path d="M6.91585 17.6991L13.691 17.6991C13.697 17.6992 13.703 17.6977 13.7082 17.6947C13.7135 17.6917 13.7178 17.6873 13.7209 17.682L15.2657 14.9814C15.2687 14.9761 15.2731 14.9717 15.2783 14.9687C15.2836 14.9657 15.2895 14.9642 15.2955 14.9643L17.2522 14.9643C17.2582 14.9642 17.2641 14.9657 17.2693 14.9687C17.2745 14.9716 17.2789 14.9759 17.2819 14.9811C17.2849 14.9863 17.2865 14.9922 17.2866 14.9983C17.2866 15.0043 17.285 15.0102 17.282 15.0155L14.7355 19.4634C14.7325 19.4687 14.7281 19.473 14.7229 19.476C14.7176 19.479 14.7117 19.4806 14.7057 19.4805L5.87237 19.4805C5.86634 19.4806 5.86039 19.479 5.85514 19.476C5.84989 19.473 5.84554 19.4687 5.84252 19.4634L3.00453 14.5036C3.00156 14.4985 3 14.4926 3 14.4866C3 14.4806 3.00156 14.4747 3.00453 14.4695L4.00225 12.7474C4.00522 12.7421 4.00949 12.7378 4.01464 12.7348C4.01979 12.7318 4.02564 12.7302 4.0316 12.7302C4.03756 12.7302 4.04341 12.7318 4.04856 12.7348C4.05371 12.7378 4.05798 12.7421 4.06094 12.7474L6.88601 17.682C6.88902 17.6873 6.89338 17.6917 6.89862 17.6947C6.90387 17.6977 6.90982 17.6992 6.91585 17.6991Z" fill="#398BA1"/>
<path d="M18.1605 15.4783L19.1443 17.2155C19.1468 17.2201 19.1481 17.2253 19.1481 17.2305C19.1481 17.2358 19.1468 17.241 19.1443 17.2456L16.2973 22.2244C16.2947 22.2293 16.2908 22.2333 16.286 22.2361C16.2813 22.239 16.2759 22.2405 16.2705 22.2405L7.45209 22.2405C7.4466 22.2405 7.44122 22.239 7.4365 22.2361C7.43178 22.2333 7.42789 22.2293 7.42523 22.2244L6.43746 20.4792C6.4349 20.4745 6.43357 20.4693 6.43359 20.464C6.43362 20.4586 6.43499 20.4534 6.43759 20.4488C6.44018 20.4442 6.44391 20.4403 6.44841 20.4375C6.45292 20.4347 6.45805 20.4332 6.46332 20.433L15.2598 20.434C15.2653 20.434 15.2707 20.4325 15.2754 20.4297C15.2801 20.4268 15.284 20.4228 15.2867 20.418L18.1067 15.4783C18.1094 15.4735 18.1133 15.4695 18.1181 15.4667C18.1228 15.4639 18.1281 15.4624 18.1336 15.4624C18.1391 15.4624 18.1444 15.4639 18.1492 15.4667C18.1539 15.4695 18.1578 15.4735 18.1605 15.4783Z" fill="#398BA1"/>
<path d="M19.7315 18.2272L20.7173 19.9564C20.7198 19.9614 20.7211 19.9669 20.7209 19.9725C20.7207 19.9782 20.7191 19.9836 20.7163 19.9885L17.8683 24.9593C17.8654 24.9643 17.8611 24.9684 17.8561 24.9712C17.851 24.974 17.8453 24.9755 17.8395 24.9753L9.0271 24.9753C9.02132 24.9755 9.0156 24.974 9.01054 24.9712C9.00547 24.9684 9.00123 24.9643 8.99825 24.9593L8.01446 23.2441C8.01148 23.2391 8.00986 23.2334 8.00977 23.2276C8.00968 23.2217 8.01112 23.216 8.01395 23.2109C8.01678 23.2058 8.02089 23.2015 8.02587 23.1986C8.03085 23.1956 8.03652 23.194 8.04231 23.194L16.8169 23.194C16.8228 23.194 16.8286 23.1924 16.8336 23.1894C16.8387 23.1864 16.8429 23.1821 16.8458 23.1769L19.6738 18.2272C19.6766 18.2219 19.6808 18.2176 19.6859 18.2145C19.6909 18.2115 19.6967 18.2099 19.7026 18.2099C19.7086 18.2099 19.7144 18.2115 19.7194 18.2145C19.7245 18.2176 19.7287 18.2219 19.7315 18.2272Z" fill="#398BA1"/>
<path d="M9.02554 3.99997L10.9882 3.99997C10.9958 3.99998 11.0034 4.00204 11.01 4.00592C11.0166 4.00981 11.0222 4.01538 11.026 4.02209C11.0298 4.0288 11.0318 4.03641 11.0318 4.04415C11.0318 4.05189 11.0298 4.0595 11.026 4.0662L6.64214 11.7296C6.6383 11.7364 6.63628 11.744 6.63628 11.7517C6.63628 11.7595 6.6383 11.7671 6.64214 11.7738L9.44432 16.6794C9.44816 16.6861 9.45018 16.6937 9.45019 16.7014C9.45019 16.7092 9.44818 16.7168 9.44435 16.7235C9.44052 16.7302 9.43501 16.7358 9.42837 16.7396C9.42173 16.7435 9.4142 16.7456 9.40652 16.7456L7.45982 16.7456C7.45215 16.7456 7.44463 16.7435 7.43799 16.7397C7.43136 16.7358 7.42585 16.7302 7.42202 16.7235L4.58204 11.7628C4.57819 11.7561 4.57617 11.7484 4.57617 11.7407C4.57617 11.7329 4.57819 11.7253 4.58204 11.7186L8.98774 4.02205C8.99157 4.01535 8.99708 4.00978 9.00371 4.00591C9.01035 4.00203 9.01787 3.99998 9.02554 3.99997Z" fill="#398BA1"/>
<path d="M9.77499 11.7618L12.5951 16.6994C12.5977 16.7042 12.599 16.7095 12.5989 16.7149C12.5989 16.7203 12.5974 16.7256 12.5947 16.7302C12.592 16.7349 12.5881 16.7388 12.5835 16.7415C12.5788 16.7442 12.5736 16.7456 12.5682 16.7456L10.5957 16.7456C10.5903 16.7457 10.5849 16.7443 10.5802 16.7417C10.5755 16.739 10.5716 16.7352 10.5688 16.7305L7.72483 11.7678C7.72213 11.763 7.7207 11.7577 7.7207 11.7522C7.7207 11.7468 7.72213 11.7414 7.72483 11.7367L12.1395 4.01602C12.1421 4.01118 12.146 4.00713 12.1508 4.00431C12.1555 4.00149 12.1609 3.99999 12.1663 3.99996L14.1409 3.99996C14.1463 3.99999 14.1515 4.00141 14.1562 4.00411C14.1608 4.0068 14.1647 4.01067 14.1674 4.01533C14.1701 4.01999 14.1715 4.02528 14.1716 4.03068C14.1717 4.03608 14.1704 4.0414 14.1678 4.04613L9.77499 11.7316C9.77247 11.7363 9.77114 11.7414 9.77114 11.7467C9.77114 11.752 9.77247 11.7571 9.77499 11.7618Z" fill="#398BA1"/>
<path d="M15.3011 3.99997L20.987 3.99997C20.9923 3.99996 20.9974 4.00135 21.0019 4.00399C21.0065 4.00664 21.0103 4.01044 21.0129 4.01502L22.0096 5.76127C22.0122 5.76585 22.0136 5.77104 22.0136 5.77633C22.0136 5.78162 22.0122 5.78681 22.0096 5.79139C22.007 5.79597 22.0032 5.79977 21.9987 5.80241C21.9941 5.80505 21.989 5.80644 21.9837 5.80643L16.3088 5.80643C16.3035 5.80643 16.2984 5.80782 16.2938 5.81046C16.2893 5.81311 16.2855 5.81691 16.2829 5.82149L12.8988 11.7377C12.8962 11.7423 12.8948 11.7474 12.8948 11.7527C12.8948 11.758 12.8962 11.7632 12.8988 11.7678L14.4456 14.4795C14.4482 14.4841 14.4496 14.4893 14.4496 14.4945C14.4496 14.4998 14.4482 14.505 14.4456 14.5096L13.4598 16.2398C13.4572 16.2444 13.4534 16.2482 13.4489 16.2508C13.4444 16.2535 13.4392 16.2549 13.434 16.2549C13.4287 16.2549 13.4236 16.2535 13.419 16.2508C13.4145 16.2482 13.4107 16.2444 13.4081 16.2398L10.8536 11.7718C10.851 11.7672 10.8496 11.762 10.8496 11.7567C10.8496 11.7515 10.851 11.7463 10.8536 11.7417L15.2752 4.01502C15.2778 4.01044 15.2816 4.00664 15.2862 4.00399C15.2907 4.00135 15.2958 3.99996 15.3011 3.99997Z" fill="#398BA1"/>
<path d="M21.7907 19.9512L18.4076 14.032C18.4041 14.0255 18.3989 14.0202 18.3926 14.0165C18.3863 14.0128 18.3791 14.0108 18.3718 14.0109L15.2881 14.0109C15.2808 14.0109 15.2737 14.009 15.2674 14.0053C15.2611 14.0016 15.2559 13.9962 15.2523 13.9898L14.2864 12.2907C14.283 12.2844 14.2812 12.2774 14.2813 12.2702C14.2813 12.263 14.2833 12.2559 14.2869 12.2497C14.2905 12.2435 14.2957 12.2384 14.3019 12.2349C14.3081 12.2313 14.3151 12.2295 14.3222 12.2295L19.3944 12.2295C19.4017 12.2295 19.4089 12.2314 19.4152 12.2351C19.4215 12.2388 19.4267 12.2442 19.4302 12.2506L23.8459 19.9692C23.8495 19.9755 23.8513 19.9826 23.8513 19.9898C23.8513 19.997 23.8495 20.0041 23.8459 20.0104L21.0019 24.9802C20.9982 24.9864 20.993 24.9915 20.9867 24.9951C20.9804 24.9986 20.9733 25.0004 20.9661 25.0002L18.9985 25.0002C18.9914 25.0003 18.9844 24.9984 18.9782 24.9949C18.972 24.9913 18.9668 24.9862 18.9632 24.98C18.9596 24.9738 18.9576 24.9668 18.9575 24.9596C18.9574 24.9524 18.9592 24.9453 18.9627 24.939L21.7907 19.9913C21.7941 19.9852 21.7959 19.9783 21.7959 19.9712C21.7959 19.9642 21.7941 19.9573 21.7907 19.9512Z" fill="#398BA1"/>
<path d="M15.2999 9.49479L20.9679 9.49479C20.9764 9.49492 20.9848 9.49731 20.9921 9.50171C20.9995 9.50611 21.0055 9.51238 21.0097 9.51988L25.4174 17.2285C25.4215 17.2358 25.4236 17.2441 25.4236 17.2526C25.4236 17.261 25.4215 17.2693 25.4174 17.2767L24.4515 18.9637C24.4472 18.971 24.441 18.977 24.4337 18.9812C24.4264 18.9854 24.4181 18.9875 24.4097 18.9875C24.4013 18.9875 24.393 18.9854 24.3857 18.9812C24.3784 18.977 24.3723 18.971 24.3679 18.9637L19.9831 11.3013C19.9789 11.2938 19.9729 11.2875 19.9656 11.2831C19.9582 11.2787 19.9499 11.2763 19.9413 11.2762L14.3439 11.2762C14.3354 11.2762 14.327 11.274 14.3196 11.2698C14.3122 11.2655 14.306 11.2594 14.3017 11.252C14.2973 11.2445 14.295 11.2361 14.2949 11.2275C14.2948 11.2189 14.297 11.2104 14.3012 11.2029L15.2581 9.51988C15.2623 9.51238 15.2683 9.50611 15.2757 9.50171C15.283 9.49731 15.2914 9.49492 15.2999 9.49479Z" fill="#398BA1"/>
<path d="M16.8619 6.75988L22.5588 6.75887C22.5648 6.75877 22.5707 6.7603 22.576 6.7633C22.5812 6.7663 22.5856 6.77066 22.5886 6.77593L26.9953 14.4805C26.9983 14.4857 26.9998 14.4916 26.9998 14.4976C26.9998 14.5036 26.9983 14.5095 26.9953 14.5146L26.0006 16.2478C25.9975 16.2528 25.9933 16.2569 25.9882 16.2598C25.9832 16.2627 25.9775 16.2642 25.9717 16.2642C25.9659 16.2642 25.9602 16.2627 25.9552 16.2598C25.9501 16.2569 25.9459 16.2528 25.9429 16.2478L21.5441 8.55832C21.5411 8.55305 21.5368 8.54868 21.5315 8.54568C21.5263 8.54268 21.5203 8.54116 21.5143 8.54125L15.8801 8.54125C15.8741 8.54135 15.8682 8.53985 15.863 8.53689C15.8578 8.53394 15.8534 8.52964 15.8504 8.52444C15.8473 8.51923 15.8457 8.51331 15.8457 8.50727C15.8457 8.50124 15.8472 8.4953 15.8502 8.49007L16.832 6.77694C16.8351 6.77167 16.8394 6.76731 16.8447 6.76431C16.8499 6.76131 16.8559 6.75978 16.8619 6.75988Z" fill="#398BA1"/>
<path d="M35.6 21V11.56H32.64V9.32H40.96V11.56H38V21H35.6ZM44.6338 21V9.32H48.3938C49.2258 9.32 49.9458 9.464 50.5538 9.752C51.1618 10.04 51.6311 10.4507 51.9618 10.984C52.3031 11.5173 52.4738 12.1467 52.4738 12.872C52.4738 13.6293 52.2871 14.3067 51.9138 14.904C51.5511 15.5013 51.0551 15.9333 50.4258 16.2L52.6337 21H50.0258L48.1378 16.584H47.0178V21H44.6338ZM47.0178 14.504H48.3938C48.9271 14.504 49.3378 14.3707 49.6258 14.104C49.9244 13.8373 50.0738 13.464 50.0738 12.984C50.0738 12.4827 49.9244 12.0933 49.6258 11.816C49.3378 11.5387 48.9271 11.4 48.3938 11.4H47.0178V14.504ZM56.4675 21V9.32H63.6675V11.368H58.8195V13.992H63.1075V16.04H58.8195V18.952H63.6675V21H56.4675ZM68.3013 21V9.32H70.7013V18.76H75.4213V21H68.3013ZM79.895 21V9.32H82.295V18.76H87.015V21H79.895ZM91.2488 21V18.92H93.5688V11.4H91.2488V9.32H98.2888V11.4H95.9688V18.92H98.2888V21H91.2488ZM106.363 21.16C105.541 21.16 104.827 21.0213 104.219 20.744C103.611 20.4667 103.141 20.0773 102.811 19.576C102.48 19.0747 102.315 18.4827 102.315 17.8H104.715C104.715 18.1947 104.864 18.5093 105.163 18.744C105.472 18.968 105.888 19.08 106.411 19.08C106.912 19.08 107.301 18.968 107.579 18.744C107.867 18.52 108.011 18.2107 108.011 17.816C108.011 17.4747 107.904 17.1813 107.691 16.936C107.477 16.6907 107.179 16.5253 106.795 16.44L105.611 16.168C104.619 15.9333 103.845 15.5013 103.291 14.872C102.747 14.232 102.475 13.4533 102.475 12.536C102.475 11.8533 102.629 11.2613 102.939 10.76C103.259 10.248 103.707 9.85333 104.283 9.576C104.859 9.29867 105.541 9.16 106.331 9.16C107.525 9.16 108.469 9.45867 109.163 10.056C109.867 10.6427 110.219 11.4373 110.219 12.44H107.819C107.819 12.0667 107.685 11.7733 107.419 11.56C107.163 11.3467 106.789 11.24 106.299 11.24C105.84 11.24 105.488 11.3467 105.243 11.56C104.997 11.7627 104.875 12.056 104.875 12.44C104.875 12.7813 104.971 13.0747 105.163 13.32C105.365 13.5547 105.648 13.7147 106.011 13.8L107.259 14.088C108.293 14.3227 109.077 14.7493 109.611 15.368C110.144 15.976 110.411 16.7547 110.411 17.704C110.411 18.3867 110.24 18.9893 109.899 19.512C109.568 20.0347 109.099 20.44 108.491 20.728C107.893 21.016 107.184 21.16 106.363 21.16Z" fill="#111111"/>
</g>
<defs>
<clipPath id="clip0_1215_136">
<rect width="115" height="29" fill="white"/>
</clipPath>
</defs>
</svg>
